<mxfile host="app.diagrams.net" agent="Mozilla/5.0 (Windows NT 10.0; Win64; x64) AppleWebKit/537.36 (KHTML, like Gecko) Chrome/130.0.0.0 Safari/537.36 Edg/130.0.0.0" version="24.8.4">
  <diagram name="PÃ¡gina-1" id="XVfcslkLxp-1_akfeJbB">
    <mxGraphModel grid="1" page="1" gridSize="10" guides="1" tooltips="1" connect="1" arrows="1" fold="1" pageScale="1" pageWidth="827" pageHeight="1169" background="#ffffff" math="0" shadow="0">
      <root>
        <mxCell id="0" />
        <mxCell id="1" parent="0" />
        <mxCell id="vIGgO8d-_sJmQ2ijWdVl-20" value="Presence" style="shape=process;whiteSpace=wrap;html=1;backgroundOutline=1;fillColor=#d5e8d4;strokeColor=#82b366;shadow=0;" vertex="1" parent="1">
          <mxGeometry x="279" y="169" width="120" height="60" as="geometry" />
        </mxCell>
        <mxCell id="vIGgO8d-_sJmQ2ijWdVl-21" value="User" style="shape=process;whiteSpace=wrap;html=1;backgroundOutline=1;fillColor=#d5e8d4;strokeColor=#82b366;" vertex="1" parent="1">
          <mxGeometry x="116" y="169" width="120" height="60" as="geometry" />
        </mxCell>
        <mxCell id="vIGgO8d-_sJmQ2ijWdVl-22" value="Social" style="shape=process;whiteSpace=wrap;html=1;backgroundOutline=1;fillColor=#d5e8d4;strokeColor=#82b366;shadow=0;" vertex="1" parent="1">
          <mxGeometry x="116" y="360" width="120" height="60" as="geometry" />
        </mxCell>
        <mxCell id="vIGgO8d-_sJmQ2ijWdVl-28" value="Discovery" style="ellipse;shape=cloud;whiteSpace=wrap;html=1;fillColor=#dae8fc;strokeColor=#6c8ebf;" vertex="1" parent="1">
          <mxGeometry x="59" y="12" width="120" height="80" as="geometry" />
        </mxCell>
        <mxCell id="vIGgO8d-_sJmQ2ijWdVl-29" value="Configuration" style="ellipse;shape=cloud;whiteSpace=wrap;html=1;fillColor=#dae8fc;strokeColor=#6c8ebf;" vertex="1" parent="1">
          <mxGeometry x="321" y="11" width="120" height="80" as="geometry" />
        </mxCell>
        <mxCell id="xb10AkClEqbW55oiNbZ6-1" value="" style="shape=actor;whiteSpace=wrap;html=1;" vertex="1" parent="1">
          <mxGeometry x="-111" y="260" width="40" height="60" as="geometry" />
        </mxCell>
        <mxCell id="IZCMPp9ksf4zXM8ulBQ1-1" value="Media" style="shape=process;whiteSpace=wrap;html=1;backgroundOutline=1;fillColor=#dae8fc;strokeColor=#6c8ebf;" vertex="1" parent="1">
          <mxGeometry x="19" y="133" width="70" height="30" as="geometry" />
        </mxCell>
        <mxCell id="IZCMPp9ksf4zXM8ulBQ1-2" value="Chat" style="shape=process;whiteSpace=wrap;html=1;backgroundOutline=1;fillColor=#d5e8d4;strokeColor=#82b366;shadow=0;" vertex="1" parent="1">
          <mxGeometry x="279" y="360" width="120" height="60" as="geometry" />
        </mxCell>
        <mxCell id="IZCMPp9ksf4zXM8ulBQ1-3" value="Gateway" style="shape=process;whiteSpace=wrap;html=1;backgroundOutline=1;fillColor=#dae8fc;strokeColor=#6c8ebf;" vertex="1" parent="1">
          <mxGeometry x="-31" y="260" width="120" height="60" as="geometry" />
        </mxCell>
        <mxCell id="IZCMPp9ksf4zXM8ulBQ1-4" value="" style="shape=image;html=1;verticalAlign=top;verticalLabelPosition=bottom;labelBackgroundColor=#ffffff;imageAspect=0;aspect=fixed;image=https://cdn2.iconfinder.com/data/icons/boxicons-logos/24/bxl-spring-boot-128.png;hachureGap=4;fontFamily=Architects Daughter;fontSource=https%3A%2F%2Ffonts.googleapis.com%2Fcss%3Ffamily%3DArchitects%2BDaughter;imageBackground=none;imageBorder=none;fillColor=#d5e8d4;strokeColor=#82b366;shadow=0;" vertex="1" parent="1">
          <mxGeometry x="281" y="183" width="28" height="28" as="geometry" />
        </mxCell>
        <mxCell id="IZCMPp9ksf4zXM8ulBQ1-5" value="" style="shape=image;html=1;verticalAlign=top;verticalLabelPosition=bottom;labelBackgroundColor=#ffffff;imageAspect=0;aspect=fixed;image=https://cdn2.iconfinder.com/data/icons/boxicons-logos/24/bxl-spring-boot-128.png;sketch=1;hachureGap=4;jiggle=2;curveFitting=1;fontFamily=Architects Daughter;fontSource=https%3A%2F%2Ffonts.googleapis.com%2Fcss%3Ffamily%3DArchitects%2BDaughter;" vertex="1" parent="1">
          <mxGeometry x="130" y="185" width="28" height="28" as="geometry" />
        </mxCell>
        <mxCell id="IZCMPp9ksf4zXM8ulBQ1-6" value="" style="shape=image;html=1;verticalAlign=top;verticalLabelPosition=bottom;labelBackgroundColor=#ffffff;imageAspect=0;aspect=fixed;image=https://cdn2.iconfinder.com/data/icons/boxicons-logos/24/bxl-spring-boot-128.png;hachureGap=4;fontFamily=Architects Daughter;fontSource=https%3A%2F%2Ffonts.googleapis.com%2Fcss%3Ffamily%3DArchitects%2BDaughter;fillColor=#d5e8d4;strokeColor=#82b366;shadow=0;" vertex="1" parent="1">
          <mxGeometry x="290" y="375" width="28" height="28" as="geometry" />
        </mxCell>
        <mxCell id="IZCMPp9ksf4zXM8ulBQ1-7" value="" style="shape=image;html=1;verticalAlign=top;verticalLabelPosition=bottom;labelBackgroundColor=#ffffff;imageAspect=0;aspect=fixed;image=https://cdn2.iconfinder.com/data/icons/boxicons-logos/24/bxl-spring-boot-128.png;hachureGap=4;fontFamily=Architects Daughter;fontSource=https%3A%2F%2Ffonts.googleapis.com%2Fcss%3Ffamily%3DArchitects%2BDaughter;fillColor=#d5e8d4;strokeColor=#82b366;shadow=0;" vertex="1" parent="1">
          <mxGeometry x="122" y="375" width="28" height="28" as="geometry" />
        </mxCell>
        <mxCell id="IZCMPp9ksf4zXM8ulBQ1-8" value="" style="image;aspect=fixed;html=1;points=[];align=center;fontSize=12;image=img/lib/azure2/databases/Azure_Database_PostgreSQL_Server.svg;sketch=1;hachureGap=4;jiggle=2;curveFitting=1;fontFamily=Architects Daughter;fontSource=https%3A%2F%2Ffonts.googleapis.com%2Fcss%3Ffamily%3DArchitects%2BDaughter;opacity=60;" vertex="1" parent="1">
          <mxGeometry x="188" y="114" width="36.75" height="49" as="geometry" />
        </mxCell>
        <mxCell id="IZCMPp9ksf4zXM8ulBQ1-9" value="" style="shape=image;html=1;verticalAlign=top;verticalLabelPosition=bottom;labelBackgroundColor=#ffffff;imageAspect=0;aspect=fixed;image=https://cdn2.iconfinder.com/data/icons/boxicons-logos/24/bxl-spring-boot-128.png;sketch=1;hachureGap=4;jiggle=2;curveFitting=1;fontFamily=Architects Daughter;fontSource=https%3A%2F%2Ffonts.googleapis.com%2Fcss%3Ffamily%3DArchitects%2BDaughter;imageBackground=none;imageBorder=none;" vertex="1" parent="1">
          <mxGeometry x="9" y="133" width="28" height="28" as="geometry" />
        </mxCell>
        <mxCell id="IZCMPp9ksf4zXM8ulBQ1-10" value="" style="shape=image;html=1;verticalAlign=top;verticalLabelPosition=bottom;labelBackgroundColor=#ffffff;imageAspect=0;aspect=fixed;image=https://cdn2.iconfinder.com/data/icons/boxicons-logos/24/bxl-spring-boot-128.png;sketch=1;hachureGap=4;jiggle=2;curveFitting=1;fontFamily=Architects Daughter;fontSource=https%3A%2F%2Ffonts.googleapis.com%2Fcss%3Ffamily%3DArchitects%2BDaughter;imageBackground=none;imageBorder=none;" vertex="1" parent="1">
          <mxGeometry x="367" y="63" width="28" height="28" as="geometry" />
        </mxCell>
        <mxCell id="IZCMPp9ksf4zXM8ulBQ1-11" value="" style="shape=image;html=1;verticalAlign=top;verticalLabelPosition=bottom;labelBackgroundColor=#ffffff;imageAspect=0;aspect=fixed;image=https://cdn2.iconfinder.com/data/icons/boxicons-logos/24/bxl-spring-boot-128.png;sketch=1;hachureGap=4;jiggle=2;curveFitting=1;fontFamily=Architects Daughter;fontSource=https%3A%2F%2Ffonts.googleapis.com%2Fcss%3Ffamily%3DArchitects%2BDaughter;imageBackground=none;imageBorder=none;" vertex="1" parent="1">
          <mxGeometry x="105" y="63" width="28" height="28" as="geometry" />
        </mxCell>
        <mxCell id="IZCMPp9ksf4zXM8ulBQ1-12" value="" style="shape=image;html=1;verticalAlign=top;verticalLabelPosition=bottom;labelBackgroundColor=#ffffff;imageAspect=0;aspect=fixed;image=https://cdn2.iconfinder.com/data/icons/boxicons-logos/24/bxl-spring-boot-128.png;sketch=1;hachureGap=4;jiggle=2;curveFitting=1;fontFamily=Architects Daughter;fontSource=https%3A%2F%2Ffonts.googleapis.com%2Fcss%3Ffamily%3DArchitects%2BDaughter;imageBackground=none;imageBorder=none;" vertex="1" parent="1">
          <mxGeometry x="-24" y="276" width="28" height="28" as="geometry" />
        </mxCell>
        <mxCell id="IZCMPp9ksf4zXM8ulBQ1-17" value="" style="image;sketch=0;aspect=fixed;html=1;points=[];align=center;fontSize=12;image=img/lib/mscae/Cache_Redis_Product.svg;hachureGap=4;jiggle=2;curveFitting=1;fontFamily=Architects Daughter;fontSource=https%3A%2F%2Ffonts.googleapis.com%2Fcss%3Ffamily%3DArchitects%2BDaughter;opacity=60;" vertex="1" parent="1">
          <mxGeometry x="342" y="439" width="38.1" height="32" as="geometry" />
        </mxCell>
        <mxCell id="IZCMPp9ksf4zXM8ulBQ1-18" value="Kafka Broker" style="shape=process;whiteSpace=wrap;html=1;backgroundOutline=1;sketch=1;hachureGap=4;jiggle=2;curveFitting=1;fontFamily=Architects Daughter;fontSource=https%3A%2F%2Ffonts.googleapis.com%2Fcss%3Ffamily%3DArchitects%2BDaughter;" vertex="1" parent="1">
          <mxGeometry x="190" y="280" width="120" height="30" as="geometry" />
        </mxCell>
        <mxCell id="IZCMPp9ksf4zXM8ulBQ1-19" value="" style="image;sketch=0;aspect=fixed;html=1;points=[];align=center;fontSize=12;image=img/lib/mscae/Cache_Redis_Product.svg;hachureGap=4;jiggle=2;curveFitting=1;fontFamily=Architects Daughter;fontSource=https%3A%2F%2Ffonts.googleapis.com%2Fcss%3Ffamily%3DArchitects%2BDaughter;opacity=60;" vertex="1" parent="1">
          <mxGeometry x="197.89999999999998" y="438" width="38.1" height="32" as="geometry" />
        </mxCell>
        <mxCell id="IZCMPp9ksf4zXM8ulBQ1-20" value="" style="image;sketch=0;aspect=fixed;html=1;points=[];align=center;fontSize=12;image=img/lib/mscae/Cache_Redis_Product.svg;hachureGap=4;jiggle=2;curveFitting=1;fontFamily=Architects Daughter;fontSource=https%3A%2F%2Ffonts.googleapis.com%2Fcss%3Ffamily%3DArchitects%2BDaughter;opacity=60;" vertex="1" parent="1">
          <mxGeometry x="314.79999999999995" y="135" width="38.1" height="32" as="geometry" />
        </mxCell>
        <mxCell id="IZCMPp9ksf4zXM8ulBQ1-21" value="" style="image;sketch=0;aspect=fixed;html=1;points=[];align=center;fontSize=12;image=img/lib/mscae/Cache_Redis_Product.svg;hachureGap=4;jiggle=2;curveFitting=1;fontFamily=Architects Daughter;fontSource=https%3A%2F%2Ffonts.googleapis.com%2Fcss%3Ffamily%3DArchitects%2BDaughter;opacity=60;" vertex="1" parent="1">
          <mxGeometry x="146" y="128.5" width="38.1" height="32" as="geometry" />
        </mxCell>
        <mxCell id="cuLA7Copchl5w8dbtc5D-1" value="" style="endArrow=none;dashed=1;html=1;dashPattern=1 3;strokeWidth=1;rounded=0;sketch=1;hachureGap=4;jiggle=2;curveFitting=1;fontFamily=Architects Daughter;fontSource=https%3A%2F%2Ffonts.googleapis.com%2Fcss%3Ffamily%3DArchitects%2BDaughter;" edge="1" parent="1">
          <mxGeometry width="50" height="50" relative="1" as="geometry">
            <mxPoint x="-40" y="100" as="sourcePoint" />
            <mxPoint x="520" y="100" as="targetPoint" />
          </mxGeometry>
        </mxCell>
        <mxCell id="cuLA7Copchl5w8dbtc5D-2" value="" style="endArrow=none;dashed=1;html=1;dashPattern=1 3;strokeWidth=1;rounded=0;sketch=1;hachureGap=4;jiggle=2;curveFitting=1;fontFamily=Architects Daughter;fontSource=https%3A%2F%2Ffonts.googleapis.com%2Fcss%3Ffamily%3DArchitects%2BDaughter;" edge="1" parent="1">
          <mxGeometry width="50" height="50" relative="1" as="geometry">
            <mxPoint x="-30" y="480" as="sourcePoint" />
            <mxPoint x="530" y="480" as="targetPoint" />
          </mxGeometry>
        </mxCell>
        <mxCell id="cuLA7Copchl5w8dbtc5D-4" value="" style="endArrow=none;dashed=1;html=1;dashPattern=1 3;strokeWidth=1;rounded=0;sketch=1;hachureGap=4;jiggle=2;curveFitting=1;fontFamily=Architects Daughter;fontSource=https%3A%2F%2Ffonts.googleapis.com%2Fcss%3Ffamily%3DArchitects%2BDaughter;" edge="1" parent="1">
          <mxGeometry width="50" height="50" relative="1" as="geometry">
            <mxPoint x="-40" y="480" as="sourcePoint" />
            <mxPoint x="-40" y="99" as="targetPoint" />
          </mxGeometry>
        </mxCell>
        <mxCell id="cuLA7Copchl5w8dbtc5D-5" value="" style="endArrow=none;dashed=1;html=1;dashPattern=1 3;strokeWidth=1;rounded=0;sketch=1;hachureGap=4;jiggle=2;curveFitting=1;fontFamily=Architects Daughter;fontSource=https%3A%2F%2Ffonts.googleapis.com%2Fcss%3Ffamily%3DArchitects%2BDaughter;" edge="1" parent="1">
          <mxGeometry width="50" height="50" relative="1" as="geometry">
            <mxPoint x="519" y="481" as="sourcePoint" />
            <mxPoint x="519" y="100" as="targetPoint" />
          </mxGeometry>
        </mxCell>
        <mxCell id="W-ce0daFif6f4AyQGTuz-4" value="" style="image;aspect=fixed;html=1;points=[];align=center;fontSize=12;image=img/lib/mscae/Docker.svg;fillColor=#d5e8d4;strokeColor=#82b366;shadow=0;opacity=75;" vertex="1" parent="1">
          <mxGeometry x="211.1" y="19.19999999999999" width="80" height="65.6" as="geometry" />
        </mxCell>
        <mxCell id="5aAHZvWITC7c0Dzl3Sy2-1" value="" style="image;sketch=0;aspect=fixed;html=1;points=[];align=center;fontSize=12;image=img/lib/mscae/Cache_Redis_Product.svg;hachureGap=4;jiggle=2;curveFitting=1;fontFamily=Architects Daughter;fontSource=https%3A%2F%2Ffonts.googleapis.com%2Fcss%3Ffamily%3DArchitects%2BDaughter;" vertex="1" parent="1">
          <mxGeometry x="440.99999999999994" y="240" width="38.1" height="32" as="geometry" />
        </mxCell>
        <mxCell id="5aAHZvWITC7c0Dzl3Sy2-2" value="" style="image;aspect=fixed;html=1;points=[];align=center;fontSize=12;image=img/lib/azure2/databases/Azure_Database_PostgreSQL_Server.svg;sketch=1;hachureGap=4;jiggle=2;curveFitting=1;fontFamily=Architects Daughter;fontSource=https%3A%2F%2Ffonts.googleapis.com%2Fcss%3Ffamily%3DArchitects%2BDaughter;" vertex="1" parent="1">
          <mxGeometry x="441" y="290" width="36.75" height="49" as="geometry" />
        </mxCell>
        <mxCell id="5aAHZvWITC7c0Dzl3Sy2-3" value="" style="image;aspect=fixed;html=1;points=[];align=center;fontSize=12;image=img/lib/azure2/databases/Azure_Database_PostgreSQL_Server.svg;sketch=1;hachureGap=4;jiggle=2;curveFitting=1;fontFamily=Architects Daughter;fontSource=https%3A%2F%2Ffonts.googleapis.com%2Fcss%3Ffamily%3DArchitects%2BDaughter;opacity=60;" vertex="1" parent="1">
          <mxGeometry x="152" y="425.5" width="36.75" height="49" as="geometry" />
        </mxCell>
        <mxCell id="5aAHZvWITC7c0Dzl3Sy2-4" value="" style="image;aspect=fixed;html=1;points=[];align=center;fontSize=12;image=img/lib/azure2/databases/Azure_Database_PostgreSQL_Server.svg;sketch=1;hachureGap=4;jiggle=2;curveFitting=1;fontFamily=Architects Daughter;fontSource=https%3A%2F%2Ffonts.googleapis.com%2Fcss%3Ffamily%3DArchitects%2BDaughter;opacity=60;" vertex="1" parent="1">
          <mxGeometry x="294.63" y="422" width="36.75" height="49" as="geometry" />
        </mxCell>
        <mxCell id="dJ4MYvDO9VTPVAZJK-hY-4" value="" style="verticalLabelPosition=bottom;verticalAlign=top;html=1;shape=mxgraph.basic.no_symbol;fillColor=#a20025;fontColor=#ffffff;strokeColor=#6F0000;" vertex="1" parent="1">
          <mxGeometry x="256.9" y="41" width="22.1" height="20" as="geometry" />
        </mxCell>
        <mxCell id="dJ4MYvDO9VTPVAZJK-hY-8" value="" style="html=1;verticalLabelPosition=bottom;labelBackgroundColor=#ffffff;verticalAlign=top;shadow=0;dashed=0;strokeWidth=1;shape=mxgraph.ios7ui.onOffButton;buttonState=on;strokeColor=#2D7600;strokeColor2=#aaaaaa;fillColor=#60a917;fillColor2=#ffffff;fontColor=#ffffff;flipH=0;flipV=0;direction=north;" vertex="1" parent="1">
          <mxGeometry x="224.75" y="192.2" width="9" height="15.6" as="geometry" />
        </mxCell>
        <mxCell id="dJ4MYvDO9VTPVAZJK-hY-11" value="" style="html=1;verticalLabelPosition=bottom;labelBackgroundColor=#ffffff;verticalAlign=top;shadow=0;dashed=0;strokeWidth=1;shape=mxgraph.ios7ui.onOffButton;buttonState=on;strokeColor=#B20000;strokeColor2=#aaaaaa;fillColor=#e51400;fillColor2=#ffffff;fontColor=#ffffff;flipH=1;flipV=0;direction=south;" vertex="1" parent="1">
          <mxGeometry x="387.3" y="189.7" width="9" height="15.6" as="geometry" />
        </mxCell>
        <mxCell id="dJ4MYvDO9VTPVAZJK-hY-15" value="" style="html=1;verticalLabelPosition=bottom;labelBackgroundColor=#ffffff;verticalAlign=top;shadow=0;dashed=0;strokeWidth=1;shape=mxgraph.ios7ui.onOffButton;buttonState=on;strokeColor=#B20000;strokeColor2=#aaaaaa;fillColor=#e51400;fillColor2=#ffffff;fontColor=#ffffff;flipH=1;flipV=0;direction=south;" vertex="1" parent="1">
          <mxGeometry x="387.3" y="382.2" width="9" height="15.6" as="geometry" />
        </mxCell>
        <mxCell id="dJ4MYvDO9VTPVAZJK-hY-16" value="" style="html=1;verticalLabelPosition=bottom;labelBackgroundColor=#ffffff;verticalAlign=top;shadow=0;dashed=0;strokeWidth=1;shape=mxgraph.ios7ui.onOffButton;buttonState=on;strokeColor=#B20000;strokeColor2=#aaaaaa;fillColor=#e51400;fillColor2=#ffffff;fontColor=#ffffff;flipH=1;flipV=0;direction=south;" vertex="1" parent="1">
          <mxGeometry x="224.75" y="382.2" width="9" height="15.6" as="geometry" />
        </mxCell>
        <mxCell id="dJ4MYvDO9VTPVAZJK-hY-17" value="" style="html=1;verticalLabelPosition=bottom;labelBackgroundColor=#ffffff;verticalAlign=top;shadow=0;dashed=0;strokeWidth=1;shape=mxgraph.ios7ui.onOffButton;buttonState=on;strokeColor=#2D7600;strokeColor2=#aaaaaa;fillColor=#60a917;fillColor2=#ffffff;fontColor=#ffffff;flipH=0;flipV=0;direction=north;" vertex="1" parent="1">
          <mxGeometry x="80" y="143.2" width="9" height="15.6" as="geometry" />
        </mxCell>
        <mxCell id="dJ4MYvDO9VTPVAZJK-hY-18" value="" style="html=1;verticalLabelPosition=bottom;labelBackgroundColor=#ffffff;verticalAlign=top;shadow=0;dashed=0;strokeWidth=1;shape=mxgraph.ios7ui.onOffButton;buttonState=on;strokeColor=#2D7600;strokeColor2=#aaaaaa;fillColor=#60a917;fillColor2=#ffffff;fontColor=#ffffff;flipH=0;flipV=0;direction=north;" vertex="1" parent="1">
          <mxGeometry x="78" y="285.2" width="9" height="15.6" as="geometry" />
        </mxCell>
        <mxCell id="dJ4MYvDO9VTPVAZJK-hY-19" value="" style="html=1;verticalLabelPosition=bottom;labelBackgroundColor=#ffffff;verticalAlign=top;shadow=0;dashed=0;strokeWidth=1;shape=mxgraph.ios7ui.onOffButton;buttonState=on;strokeColor=#2D7600;strokeColor2=#aaaaaa;fillColor=#60a917;fillColor2=#ffffff;fontColor=#ffffff;flipH=0;flipV=0;direction=north;" vertex="1" parent="1">
          <mxGeometry x="150" y="44.19999999999999" width="9" height="15.6" as="geometry" />
        </mxCell>
        <mxCell id="dJ4MYvDO9VTPVAZJK-hY-20" value="" style="html=1;verticalLabelPosition=bottom;labelBackgroundColor=#ffffff;verticalAlign=top;shadow=0;dashed=0;strokeWidth=1;shape=mxgraph.ios7ui.onOffButton;buttonState=on;strokeColor=#2D7600;strokeColor2=#aaaaaa;fillColor=#60a917;fillColor2=#ffffff;fontColor=#ffffff;flipH=0;flipV=0;direction=north;" vertex="1" parent="1">
          <mxGeometry x="420" y="43.19999999999999" width="9" height="15.6" as="geometry" />
        </mxCell>
      </root>
    </mxGraphModel>
  </diagram>
</mxfile>
